<svg width="200" height="200" viewBox="0 0 200 200" fill="none" xmlns="http://www.w3.org/2000/svg">
<rect width="200" height="200" rx="60" fill="white"/>
<path d="M0 100H40C73.1371 100 100 126.863 100 160V200H60C26.8629 200 0 173.137 0 140V100Z" fill="#E0B703"/>
<path d="M0 100L0 60C0 26.8629 26.8629 0 60 0H100V40C100 73.1371 73.1371 100 40 100H0Z" fill="#5A65FF"/>
<path d="M100 200V160C100 126.863 126.863 100 160 100H200V140C200 173.137 173.137 200 140 200H100Z" fill="#5A65FF"/>
<path d="M100 0H140C173.137 0 200 26.8629 200 60V100H160C126.863 100 100 73.1371 100 40V0Z" fill="#E0B703"/>
</svg>
