<svg width="80" height="80" viewBox="0 0 80 80" fill="none" xmlns="http://www.w3.org/2000/svg">
<path d="M40 0.750002C29.7102 0.750001 24.7335 0.758329 20.708 1.99435C11.7533 4.74386 4.74386 11.7533 1.99435 20.708C0.758326 24.7335 0.749999 29.7102 0.749998 40C0.749998 50.2898 0.758325 55.2665 1.99435 59.292C4.74386 68.2467 11.7533 75.2561 20.708 78.0056C24.7335 79.2417 29.7102 79.25 40 79.25C50.2898 79.25 55.2665 79.2417 59.292 78.0056C68.2467 75.2561 75.2561 68.2467 78.0056 59.292C79.2417 55.2665 79.25 50.2898 79.25 40C79.25 29.7102 79.2417 24.7335 78.0056 20.708C75.2561 11.7533 68.2467 4.74386 59.292 1.99435C55.2665 0.75833 50.2898 0.750002 40 0.750002Z" stroke="white" stroke-width="1.5"/>
<path d="M39.25 57C39.25 57.4142 39.5858 57.75 40 57.75C40.4142 57.75 40.75 57.4142 40.75 57L39.25 57ZM40.5303 21.4697C40.2374 21.1768 39.7626 21.1768 39.4697 21.4697L34.6967 26.2426C34.4038 26.5355 34.4038 27.0104 34.6967 27.3033C34.9896 27.5962 35.4645 27.5962 35.7574 27.3033L40 23.0607L44.2426 27.3033C44.5355 27.5962 45.0104 27.5962 45.3033 27.3033C45.5962 27.0104 45.5962 26.5355 45.3033 26.2426L40.5303 21.4697ZM40.75 57L40.75 22L39.25 22L39.25 57L40.75 57Z" fill="white"/>
</svg>
