<svg width="158" height="151" viewBox="0 0 158 151" fill="none" xmlns="http://www.w3.org/2000/svg">
<path d="M71.3915 6.41639C73.7864 -0.954092 84.2136 -0.954077 86.6085 6.41641L99.6553 46.5704C100.726 49.8666 103.798 52.0983 107.264 52.0983H149.484C157.234 52.0983 160.456 62.0152 154.186 66.5704L120.029 91.387C117.226 93.4241 116.052 97.0351 117.123 100.331L130.17 140.485C132.565 147.856 124.129 153.985 117.859 149.43L83.7023 124.613C80.8984 122.576 77.1016 122.576 74.2977 124.613L40.1406 149.43C33.8709 153.985 25.4351 147.856 27.8299 140.485L40.8768 100.331C41.9478 97.0351 40.7745 93.4241 37.9706 91.387L3.81352 66.5704C-2.45619 62.0152 0.766031 52.0983 8.51582 52.0983H50.7363C54.2021 52.0983 57.2737 49.8666 58.3447 46.5704L71.3915 6.41639Z" fill="url(#paint0_linear_2_166)"/>
<defs>
<linearGradient id="paint0_linear_2_166" x1="-21" y1="-17" x2="179" y2="183" gradientUnits="userSpaceOnUse">
<stop offset="0.11" stop-color="#FBE601"/>
<stop offset="0.43" stop-color="#F2E23E"/>
<stop offset="0.765" stop-color="#958901"/>
</linearGradient>
</defs>
</svg>
