<svg width="393" height="185" viewBox="0 0 393 185" fill="none" xmlns="http://www.w3.org/2000/svg">
<path d="M77.9988 171.133V138.315H6.96819L0 120.557L51.0252 4.34549H90.5865L46.08 105.272H77.9988V76.9496L85.4166 56.4946H116.886V105.272H131.946V132.246L116.886 138.315V171.133H77.9988Z" fill="#5A65FF"/>
<g filter="url(#filter0_d_404_3)">
<path d="M275.522 59.5043C294.614 103.151 274.708 154.01 231.062 173.101C187.415 192.192 136.556 172.287 117.465 128.64C98.3736 84.9938 118.279 34.1348 161.926 15.0434C205.572 -4.04791 256.431 15.8579 275.522 59.5043Z" fill="url(#paint0_linear_404_3)"/>
<path d="M162.158 68.8531C165.096 75.5677 162.034 83.3924 155.32 86.3301C148.605 89.2678 140.78 86.2061 137.843 79.4915C134.905 72.777 137.967 64.9522 144.681 62.0145C151.396 59.0768 159.221 62.1386 162.158 68.8531Z" fill="url(#paint1_linear_404_3)"/>
<path d="M243.205 33.717C244.891 35.6735 244.573 38.2319 242.493 39.4315C240.413 40.631 237.36 40.0173 235.673 38.0608C233.987 36.1043 234.305 33.5459 236.385 32.3463C238.465 31.1468 241.518 31.7605 243.205 33.717Z" fill="url(#paint2_linear_404_3)"/>
<path d="M273.681 95.7125C276.307 96.6266 277.41 100.312 276.145 103.945C274.881 107.577 271.727 109.781 269.101 108.866C266.476 107.952 265.373 104.267 266.637 100.634C267.902 97.0019 271.056 94.7983 273.681 95.7125Z" fill="url(#paint3_linear_404_3)"/>
<path d="M193.974 10.9324C194.144 12.4132 191.183 13.9681 187.362 14.4053C183.541 14.8426 180.306 13.9966 180.136 12.5158C179.967 11.035 182.927 9.48011 186.748 9.04286C190.57 8.60561 193.805 9.45158 193.974 10.9324Z" fill="url(#paint4_linear_404_3)"/>
<path d="M226.351 143.63C228.204 153.281 220.425 162.887 208.975 165.086C197.524 167.285 186.74 161.245 184.886 151.594C183.033 141.943 190.812 132.337 202.263 130.138C213.713 127.939 224.497 133.98 226.351 143.63Z" fill="url(#paint5_linear_404_3)"/>
<path d="M180.004 177.329C180.084 176.2 187.201 175.424 195.902 175.597C204.602 175.77 211.591 176.825 211.511 177.955C211.431 179.085 204.313 179.86 195.613 179.688C186.912 179.515 179.924 178.459 180.004 177.329Z" fill="url(#paint6_linear_404_3)"/>
<path d="M180.109 175.845C180.247 173.896 187.412 172.455 196.112 172.628C204.813 172.801 211.754 174.521 211.616 176.471C211.478 178.42 204.313 179.86 195.613 179.688C186.913 179.515 179.971 177.794 180.109 175.845Z" fill="url(#paint7_linear_404_3)"/>
<path d="M184.136 178.265C184.16 177.936 189.118 177.768 195.212 177.889C201.305 178.01 206.226 178.375 206.203 178.703C206.18 179.032 201.221 179.2 195.128 179.079C189.034 178.958 184.113 178.594 184.136 178.265Z" fill="#131537"/>
<path d="M216.353 82.4665C216.353 87.0472 212.64 90.7605 208.059 90.7605C203.478 90.7605 199.765 87.0472 199.765 82.4665C199.765 77.8858 203.478 74.1724 208.059 74.1724C212.64 74.1724 216.353 77.8858 216.353 82.4665Z" fill="#4D57E2"/>
<path d="M144.692 143.07C142.61 144.864 138.498 143.504 135.509 140.034C132.519 136.563 131.783 132.296 133.865 130.502C135.948 128.708 140.059 130.067 143.049 133.538C146.039 137.008 146.775 141.276 144.692 143.07Z" fill="#191C49"/>
<path d="M209.718 26.0669C209.718 28.8152 206.005 31.0433 201.424 31.0433C196.844 31.0433 193.13 28.8152 193.13 26.0669C193.13 23.3185 196.844 21.0905 201.424 21.0905C206.005 21.0905 209.718 23.3185 209.718 26.0669Z" fill="#363DA3"/>
<path d="M258.665 131.004C260.472 133.075 259.139 137.195 255.687 140.207C252.235 143.218 247.972 143.981 246.165 141.91C244.358 139.839 245.692 135.719 249.143 132.707C252.595 129.696 256.858 128.933 258.665 131.004Z" fill="#191C49"/>
</g>
<g filter="url(#filter1_d_404_3)">
<path d="M338.744 171.133V138.315H267.714L260.745 120.557L311.771 4.34549H351.332L306.825 105.272H338.744V76.9496L346.162 56.4946H377.631V105.272H392.691V132.246L377.631 138.315V171.133H338.744Z" fill="#5A65FF"/>
</g>
<defs>
<filter id="filter0_d_404_3" x="99.2136" y="3.79214" width="183.56" height="180.56" filterUnits="userSpaceOnUse" color-interpolation-filters="sRGB">
<feFlood flood-opacity="0" result="BackgroundImageFix"/>
<feColorMatrix in="SourceAlpha" type="matrix" values="0 0 0 0 0 0 0 0 0 0 0 0 0 0 0 0 0 0 127 0" result="hardAlpha"/>
<feOffset dx="-7"/>
<feGaussianBlur stdDeviation="2"/>
<feColorMatrix type="matrix" values="0 0 0 0 0 0 0 0 0 0 0 0 0 0 0 0 0 0 0.4 0"/>
<feBlend mode="normal" in2="BackgroundImageFix" result="effect1_dropShadow_404_3"/>
<feBlend mode="normal" in="SourceGraphic" in2="effect1_dropShadow_404_3" result="shape"/>
</filter>
<filter id="filter1_d_404_3" x="249.745" y="0.34549" width="142.946" height="174.787" filterUnits="userSpaceOnUse" color-interpolation-filters="sRGB">
<feFlood flood-opacity="0" result="BackgroundImageFix"/>
<feColorMatrix in="SourceAlpha" type="matrix" values="0 0 0 0 0 0 0 0 0 0 0 0 0 0 0 0 0 0 127 0" result="hardAlpha"/>
<feOffset dx="-7"/>
<feGaussianBlur stdDeviation="2"/>
<feColorMatrix type="matrix" values="0 0 0 0 0 0 0 0 0 0 0 0 0 0 0 0 0 0 0.4 0"/>
<feBlend mode="normal" in2="BackgroundImageFix" result="effect1_dropShadow_404_3"/>
<feBlend mode="normal" in="SourceGraphic" in2="effect1_dropShadow_404_3" result="shape"/>
</filter>
<linearGradient id="paint0_linear_404_3" x1="161.926" y1="15.0436" x2="231.062" y2="173.101" gradientUnits="userSpaceOnUse">
<stop stop-color="#5A65FF"/>
<stop offset="1" stop-color="#191C49"/>
</linearGradient>
<linearGradient id="paint1_linear_404_3" x1="144.681" y1="62.0145" x2="155.32" y2="86.3301" gradientUnits="userSpaceOnUse">
<stop stop-color="#191C49"/>
<stop offset="1" stop-color="#5A65FF"/>
</linearGradient>
<linearGradient id="paint2_linear_404_3" x1="236.385" y1="32.3462" x2="240.976" y2="40.3063" gradientUnits="userSpaceOnUse">
<stop stop-color="#191C49"/>
<stop offset="1" stop-color="#5A65FF" stop-opacity="0.59"/>
</linearGradient>
<linearGradient id="paint3_linear_404_3" x1="266.637" y1="100.634" x2="276.145" y2="103.945" gradientUnits="userSpaceOnUse">
<stop stop-color="#191C49"/>
<stop offset="1" stop-color="#3941AB"/>
</linearGradient>
<linearGradient id="paint4_linear_404_3" x1="186.748" y1="9.04271" x2="187.362" y2="14.4052" gradientUnits="userSpaceOnUse">
<stop stop-color="#191C49"/>
<stop offset="1" stop-color="#5A65FF"/>
</linearGradient>
<linearGradient id="paint5_linear_404_3" x1="202.263" y1="130.138" x2="208.975" y2="165.086" gradientUnits="userSpaceOnUse">
<stop stop-color="#191C49" stop-opacity="0.0980392"/>
<stop offset="1" stop-color="#5A65FF"/>
</linearGradient>
<linearGradient id="paint6_linear_404_3" x1="213.035" y1="177.292" x2="179.944" y2="178.973" gradientUnits="userSpaceOnUse">
<stop stop-color="#2A0001"/>
<stop offset="1" stop-color="#360103"/>
</linearGradient>
<linearGradient id="paint7_linear_404_3" x1="213.176" y1="175.305" x2="179.966" y2="175.298" gradientUnits="userSpaceOnUse">
<stop stop-color="#10122E"/>
<stop offset="1" stop-color="#191C49"/>
</linearGradient>
</defs>
</svg>
