<svg width="80" height="80" viewBox="0 0 80 80" fill="none" xmlns="http://www.w3.org/2000/svg">
<path d="M0.749998 40C0.749998 49.9686 0.757522 54.9506 1.88183 58.9121L1.99414 59.292C4.6577 67.9667 11.3193 74.816 19.874 77.7354L20.708 78.0059C24.7335 79.2419 29.7102 79.25 40 79.25C49.9685 79.25 54.9506 79.2425 58.9121 78.1182L59.292 78.0059C67.9667 75.3423 74.816 68.6807 77.7353 60.126L78.0059 59.292C79.2419 55.2665 79.25 50.2898 79.25 40C79.25 30.0315 79.2425 25.0494 78.1182 21.0879L78.0059 20.708C75.3423 12.0333 68.6807 5.18402 60.126 2.26465L59.292 1.99414C55.2665 0.758142 50.2898 0.750002 40 0.750002C30.0314 0.750001 25.0494 0.757526 21.0879 1.88184L20.708 1.99414C12.0333 4.6577 5.18402 11.3193 2.26465 19.874L1.99414 20.708C0.758139 24.7335 0.749999 29.7102 0.749998 40Z" stroke="white" stroke-width="1.5"/>
<path d="M39.25 57C39.25 57.4142 39.5858 57.75 40 57.75C40.4142 57.75 40.75 57.4142 40.75 57L39.25 57ZM40.5303 21.4697C40.2374 21.1768 39.7626 21.1768 39.4697 21.4697L34.6967 26.2426C34.4038 26.5355 34.4038 27.0104 34.6967 27.3033C34.9896 27.5962 35.4645 27.5962 35.7574 27.3033L40 23.0607L44.2426 27.3033C44.5355 27.5962 45.0104 27.5962 45.3033 27.3033C45.5962 27.0104 45.5962 26.5355 45.3033 26.2426L40.5303 21.4697ZM40.75 57L40.75 22L39.25 22L39.25 57L40.75 57Z" fill="white"/>
</svg>
