<svg width="136" height="30" viewBox="0 0 136 30" fill="none" xmlns="http://www.w3.org/2000/svg">
<path d="M17.974 6.941C17.784 7.245 17.5813 7.473 17.366 7.625C17.1633 7.777 16.8973 7.853 16.568 7.853C16.2767 7.853 15.96 7.76433 15.618 7.587C15.2887 7.397 14.9087 7.188 14.478 6.96C14.06 6.732 13.5787 6.52933 13.034 6.352C12.4893 6.162 11.8687 6.067 11.172 6.067C9.96867 6.067 9.06933 6.32667 8.474 6.846C7.89133 7.35267 7.6 8.043 7.6 8.917C7.6 9.47433 7.77733 9.93667 8.132 10.304C8.48667 10.6713 8.949 10.988 9.519 11.254C10.1017 11.52 10.7603 11.767 11.495 11.995C12.2423 12.2103 13.0023 12.4573 13.775 12.736C14.5477 13.002 15.3013 13.3187 16.036 13.686C16.7833 14.0533 17.442 14.522 18.012 15.092C18.5947 15.662 19.0633 16.3587 19.418 17.182C19.7727 17.9927 19.95 18.9743 19.95 20.127C19.95 21.4063 19.7283 22.6033 19.285 23.718C18.8417 24.8327 18.1957 25.808 17.347 26.644C16.511 27.4673 15.4723 28.1197 14.231 28.601C13.0023 29.0697 11.6027 29.304 10.032 29.304C9.17067 29.304 8.29033 29.2153 7.391 29.038C6.50433 28.8607 5.643 28.6137 4.807 28.297C3.971 27.9677 3.18567 27.5813 2.451 27.138C1.71633 26.6947 1.07667 26.2007 0.532 25.656L2.432 22.654C2.584 22.4387 2.78033 22.2613 3.021 22.122C3.27433 21.97 3.54667 21.894 3.838 21.894C4.218 21.894 4.598 22.0143 4.978 22.255C5.37067 22.4957 5.80767 22.7617 6.289 23.053C6.783 23.3443 7.34667 23.6103 7.98 23.851C8.61333 24.0917 9.36067 24.212 10.222 24.212C11.3873 24.212 12.293 23.9587 12.939 23.452C13.585 22.9327 13.908 22.1157 13.908 21.001C13.908 20.355 13.7307 19.8293 13.376 19.424C13.0213 19.0187 12.5527 18.683 11.97 18.417C11.4 18.151 10.7477 17.9167 10.013 17.714C9.27833 17.5113 8.52467 17.2897 7.752 17.049C6.97933 16.7957 6.22567 16.4917 5.491 16.137C4.75633 15.7697 4.09767 15.2947 3.515 14.712C2.945 14.1167 2.48267 13.382 2.128 12.508C1.77333 11.6213 1.596 10.532 1.596 9.24C1.596 8.20133 1.805 7.188 2.223 6.2C2.641 5.212 3.25533 4.33166 4.066 3.559C4.87667 2.78633 5.871 2.172 7.049 1.716C8.227 1.24733 9.576 1.013 11.096 1.013C11.9447 1.013 12.768 1.08267 13.566 1.222C14.3767 1.34867 15.143 1.545 15.865 1.811C16.587 2.06433 17.2583 2.37467 17.879 2.742C18.5123 3.09666 19.076 3.502 19.57 3.958L17.974 6.941ZM28.7034 0.556998V16.498H29.5774C29.9447 16.498 30.2234 16.4473 30.4134 16.346C30.6034 16.232 30.7934 16.0483 30.9834 15.795L34.7074 10.247C34.9354 9.93033 35.195 9.696 35.4864 9.544C35.7777 9.37933 36.1514 9.297 36.6074 9.297H42.0034L36.9114 16.308C36.43 16.9413 35.86 17.4607 35.2014 17.866C35.4927 18.0813 35.7587 18.3347 35.9994 18.626C36.24 18.9047 36.468 19.2213 36.6834 19.576L42.2314 29H36.9114C36.468 29 36.088 28.9303 35.7714 28.791C35.4547 28.639 35.1887 28.3793 34.9734 28.012L31.2494 21.039C31.072 20.7223 30.8884 20.5197 30.6984 20.431C30.5084 20.3297 30.2234 20.279 29.8434 20.279H28.7034V29H22.8134V0.556998H28.7034ZM50.0629 9.297V29H44.1729V9.297H50.0629ZM50.6709 3.901C50.6709 4.36967 50.5759 4.813 50.3859 5.231C50.1959 5.63633 49.9363 5.99733 49.6069 6.314C49.2776 6.618 48.8913 6.865 48.4479 7.055C48.0173 7.23233 47.5549 7.321 47.0609 7.321C46.5796 7.321 46.1299 7.23233 45.7119 7.055C45.2939 6.865 44.9203 6.618 44.5909 6.314C44.2743 5.99733 44.0209 5.63633 43.8309 5.231C43.6536 4.813 43.5649 4.36967 43.5649 3.901C43.5649 3.41966 43.6536 2.97 43.8309 2.552C44.0209 2.134 44.2743 1.76667 44.5909 1.45C44.9203 1.13333 45.2939 0.886333 45.7119 0.708998C46.1299 0.531666 46.5796 0.443 47.0609 0.443C47.5549 0.443 48.0173 0.531666 48.4479 0.708998C48.8913 0.886333 49.2776 1.13333 49.6069 1.45C49.9363 1.76667 50.1959 2.134 50.3859 2.552C50.5759 2.97 50.6709 3.41966 50.6709 3.901ZM60.0608 0.556998V29H54.1708V0.556998H60.0608ZM69.9319 0.556998V29H64.0419V0.556998H69.9319ZM98.4681 1.317V29H95.1241C94.6301 29 94.2121 28.924 93.8701 28.772C93.5408 28.6073 93.2114 28.3287 92.8821 27.936L79.8291 11.425C79.8798 11.919 79.9114 12.4003 79.9241 12.869C79.9494 13.325 79.9621 13.7557 79.9621 14.161V29H74.3001V1.317H77.6821C77.9608 1.317 78.1951 1.32967 78.3851 1.355C78.5751 1.38033 78.7461 1.431 78.8981 1.507C79.0501 1.57033 79.1958 1.66533 79.3351 1.792C79.4744 1.91867 79.6328 2.08967 79.8101 2.305L92.9771 18.93C92.9138 18.398 92.8694 17.885 92.8441 17.391C92.8188 16.8843 92.8061 16.4093 92.8061 15.966V1.317H98.4681ZM114.816 16.783C114.816 16.3143 114.753 15.8583 114.626 15.415C114.512 14.9717 114.316 14.579 114.037 14.237C113.771 13.8823 113.417 13.5973 112.973 13.382C112.53 13.1667 111.992 13.059 111.358 13.059C110.244 13.059 109.37 13.382 108.736 14.028C108.103 14.6613 107.685 15.5797 107.482 16.783H114.816ZM107.406 20.203C107.596 21.8497 108.097 23.0467 108.907 23.794C109.718 24.5287 110.763 24.896 112.042 24.896C112.726 24.896 113.315 24.8137 113.809 24.649C114.303 24.4843 114.74 24.3007 115.12 24.098C115.513 23.8953 115.868 23.7117 116.184 23.547C116.514 23.3823 116.856 23.3 117.21 23.3C117.679 23.3 118.034 23.471 118.274 23.813L119.984 25.922C119.376 26.6187 118.718 27.1887 118.008 27.632C117.312 28.0627 116.59 28.4047 115.842 28.658C115.108 28.8987 114.367 29.0633 113.619 29.152C112.885 29.2533 112.182 29.304 111.51 29.304C110.13 29.304 108.831 29.0823 107.615 28.639C106.412 28.183 105.354 27.5117 104.442 26.625C103.543 25.7383 102.827 24.6363 102.295 23.319C101.776 22.0017 101.516 20.469 101.516 18.721C101.516 17.4037 101.738 16.156 102.181 14.978C102.637 13.8 103.283 12.7677 104.119 11.881C104.968 10.9943 105.988 10.2913 107.178 9.772C108.382 9.25266 109.737 8.993 111.244 8.993C112.549 8.993 113.74 9.19567 114.816 9.601C115.906 10.0063 116.837 10.5953 117.609 11.368C118.395 12.1407 119.003 13.0907 119.433 14.218C119.877 15.3327 120.098 16.5993 120.098 18.018C120.098 18.4613 120.079 18.8223 120.041 19.101C120.003 19.3797 119.934 19.6013 119.832 19.766C119.731 19.9307 119.592 20.0447 119.414 20.108C119.25 20.1713 119.034 20.203 118.768 20.203H107.406ZM129.835 29.304C128.898 29.304 128.068 29.171 127.346 28.905C126.637 28.6263 126.035 28.24 125.541 27.746C125.06 27.2393 124.692 26.6313 124.439 25.922C124.186 25.2127 124.059 24.421 124.059 23.547V13.363H122.387C122.083 13.363 121.823 13.268 121.608 13.078C121.393 12.8753 121.285 12.584 121.285 12.204V9.905L124.42 9.297L125.579 4.49C125.731 3.882 126.162 3.578 126.871 3.578H129.949V9.335H134.832V13.363H129.949V23.148C129.949 23.604 130.057 23.984 130.272 24.288C130.5 24.5793 130.823 24.725 131.241 24.725C131.456 24.725 131.634 24.706 131.773 24.668C131.925 24.6173 132.052 24.5667 132.153 24.516C132.267 24.4527 132.368 24.402 132.457 24.364C132.558 24.3133 132.672 24.288 132.799 24.288C132.976 24.288 133.116 24.3323 133.217 24.421C133.331 24.497 133.445 24.6237 133.559 24.801L135.345 27.594C134.585 28.164 133.73 28.5947 132.78 28.886C131.83 29.1647 130.848 29.304 129.835 29.304Z" fill="#5A65FF"/>
</svg>
